<?xml version="1.0" encoding="UTF-8"?>
<svg id="Calque_2" data-name="Calque 2" xmlns="http://www.w3.org/2000/svg" viewBox="0 0 115.93 260.19">
  <defs>
    <style>
      .cls-1 {
        fill: #00a259;
      }

      .cls-2 {
        fill: #5ab379;
      }
    </style>
  </defs>
  <g id="Calque_1-2" data-name="Calque 1">
    <path class="cls-2" d="m101.77,102.17c-4.63,4.63-9.88,8.46-15.67,11.41v89.2c0,7.92-2.8,14.69-8.41,20.3-5.61,5.61-12.38,8.41-20.28,8.41s-14.69-2.8-20.3-8.41c-5.61-5.61-8.41-12.38-8.41-20.3v-89.23c-5.76-2.95-10.99-6.77-15.6-11.38-5.54-5.54-9.95-11.98-13.09-19.14v119.76c0,7.63,1.45,14.95,4.37,21.98,2.92,7.03,7.06,13.22,12.44,18.62,5.38,5.38,11.59,9.52,18.62,12.44,7.03,2.92,14.35,4.37,21.98,4.37s14.93-1.45,21.96-4.37c7.03-2.92,13.24-7.06,18.62-12.44,5.38-5.4,9.52-11.59,12.44-18.62,2.92-7.03,4.37-14.35,4.37-21.98v-119.64c-3.13,7.11-7.52,13.52-13.03,19.03Z"/>
    <path class="cls-1" d="m58.11,115.64c-7.68,0-15.06-1.47-22.14-4.4-7.08-2.94-13.33-7.11-18.75-12.54-5.42-5.42-9.6-11.67-12.54-18.75C1.75,72.88.29,65.5.29,57.82s1.47-15.06,4.4-22.13c2.94-7.08,7.12-13.33,12.54-18.75,5.42-5.42,11.67-9.6,18.75-12.54C43.05,1.47,50.43,0,58.11,0s15.06,1.47,22.14,4.4c7.08,2.94,13.33,7.11,18.75,12.54,5.42,5.42,9.6,11.67,12.54,18.75,2.94,7.08,4.4,14.46,4.4,22.13s-1.47,15.06-4.4,22.13c-2.94,7.08-7.11,13.33-12.54,18.75-5.42,5.42-11.67,9.6-18.75,12.54-7.08,2.94-14.46,4.4-22.14,4.4Zm-1.59-28.95c9.2.42,16.91-2.77,23.12-9.57,4.43-4.85,7.04-11.15,7.34-17.71.42-9.2-2.77-16.91-9.58-23.13-4.85-4.42-11.15-7.04-17.7-7.34-9.2-.42-16.91,2.77-23.13,9.58-4.43,4.85-7.04,11.15-7.34,17.7-.42,9.2,2.77,16.91,9.58,23.12,4.85,4.43,11.15,7.04,17.71,7.34Z"/>
  </g>
</svg>